<svg id="Layer_1" data-name="Layer 1" xmlns="http://www.w3.org/2000/svg" viewBox="0 0 139.89 144.84"><defs><style>.cls-1{fill:#fff;}</style></defs><title>diabetes_ninja</title><path class="cls-1" d="M369.54,591.15C361,602.4,358,616.62,355.92,631.76c-12.94,95.65,29.63,66.85,66.16,66.85s73.28,34.69,66.18-66.85c-2.58-36.83-29.63-66.86-66.18-66.86a65.36,65.36,0,0,0-35.29,10.3c-1.14-1.34-2.38-2.69-3.72-4-8.88-8.89-18.43-13.75-21.32-10.86-2.33,2.34.41,9,6.25,16.21-10.66.61-18.75,3.63-18.75,7.27C349.26,587.61,358.14,590.74,369.54,591.15Zm52.54,19.29c33,0,59.72,9.51,59.72,21.25,0,9.8-18.65,18-44,20.5a27.12,27.12,0,0,0-31.38,0c-25.37-2.45-44-10.7-44-20.5C362.38,619.95,389.11,610.44,422.08,610.44Z" transform="translate(-349.26 -559.48)"/><ellipse class="cls-1" cx="50.92" cy="72.28" rx="7.1" ry="7.17"/><path class="cls-1" d="M446.87,638.93a7.18,7.18,0,1,0-7.1-7.17A7.14,7.14,0,0,0,446.87,638.93Z" transform="translate(-349.26 -559.48)"/></svg>